<svg width="24" height="24" viewBox="0 0 24 24" fill="none" xmlns="http://www.w3.org/2000/svg">
<path d="M6.545 11.0907C8.051 11.0907 9.272 9.86974 9.272 8.36374C9.272 6.85774 8.052 5.63574 6.545 5.63574H2V18.3627" stroke="black" stroke-width="2" stroke-linecap="round" stroke-linejoin="round"/>
<path d="M2 18.3638H7.455C9.463 18.3638 11.091 16.7358 11.091 14.7278C11.091 12.7198 9.463 11.0918 7.455 11.0918H2" stroke="black" stroke-width="2" stroke-linecap="round" stroke-linejoin="round"/>
<path d="M15.6401 7.4502H20.1801" stroke="black" stroke-width="1.5" stroke-linecap="round" stroke-linejoin="round"/>
<path d="M20.8019 17.1647C20.0029 17.9637 18.9559 18.3627 17.9089 18.3627C15.6499 18.3627 13.8179 16.5307 13.8179 14.2717C13.8179 12.0127 15.6499 10.1807 17.9089 10.1807C20.1679 10.1807 21.9999 12.0127 21.9999 14.2727H13.8179" stroke="black" stroke-width="2" stroke-linecap="round" stroke-linejoin="round"/>
</svg>
