<svg width="30" height="31" viewBox="0 0 30 31" fill="none" xmlns="http://www.w3.org/2000/svg">
<path d="M20.6403 16.275L22.2791 11.7723C22.453 11.2947 22.43 10.7675 22.2151 10.3068C22.0003 9.84608 21.6113 9.48958 21.1336 9.31572C20.6559 9.14187 20.1287 9.16488 19.668 9.37971C19.2073 9.59454 18.8508 9.98359 18.677 10.4613" stroke="#661FFF" stroke-width="1.91654" stroke-linecap="round" stroke-linejoin="round"/>
<path d="M17.3662 14.0636L19.3328 8.66039C19.5067 8.18272 19.4837 7.65554 19.2689 7.19484C19.054 6.73413 18.665 6.37764 18.1873 6.20378C17.7096 6.02992 17.1825 6.05294 16.7218 6.26777C16.261 6.4826 15.9046 6.87164 15.7307 7.34932L15.0752 9.1504" stroke="#661FFF" stroke-width="1.91654" stroke-linecap="round" stroke-linejoin="round"/>
<path d="M13.6006 13.2028L15.0755 9.15036C15.2494 8.67269 15.2264 8.14551 15.0115 7.6848C14.7967 7.2241 14.4077 6.86761 13.93 6.69375C13.4523 6.51989 12.9251 6.5429 12.4644 6.75773C12.0037 6.97256 11.6472 7.36161 11.4734 7.83929L8.85122 15.0436" stroke="#661FFF" stroke-width="1.91654" stroke-linecap="round" stroke-linejoin="round"/>
<path d="M21.6236 13.5731C21.7974 13.0954 22.1539 12.7064 22.6146 12.4916C23.0753 12.2768 23.6024 12.2538 24.08 12.4276C24.5577 12.6015 24.9467 12.9579 25.1615 13.4186C25.3763 13.8793 25.3994 14.4064 25.2255 14.8841L23.259 20.2869C22.5636 22.1975 21.1378 23.7536 19.2951 24.6129C17.4524 25.4721 15.3438 25.5642 13.4332 24.8688L11.6323 24.2133C9.11092 23.2956 7.86197 21.964 7.00533 20.143L4.94349 15.7214C4.75856 15.2655 4.75603 14.7559 4.93643 14.2982C5.11683 13.8405 5.46634 13.4697 5.91259 13.2625C6.35884 13.0554 6.86766 13.0278 7.33369 13.1855C7.79972 13.3432 8.18727 13.674 8.41609 14.1095L9.4241 16.2712" stroke="#661FFF" stroke-width="1.91654" stroke-linecap="round" stroke-linejoin="round"/>
</svg>
